<?xml version="1.0" encoding="utf-8"?>
<!-- Generator: Adobe Illustrator 26.0.1, SVG Export Plug-In . SVG Version: 6.00 Build 0)  -->
<svg version="1.1" id="Layer_1" xmlns="http://www.w3.org/2000/svg" xmlns:xlink="http://www.w3.org/1999/xlink" x="0px" y="0px"
	 viewBox="0 0 787 239.3" style="enable-background:new 0 0 787 239.3;" xml:space="preserve">
<style type="text/css">
	.st0{fill:#D46B53;}
	.st1{fill:#FFFFFF;}
</style>
<g>
	<path class="st0" d="M31.2,140.9L5.2,4h24.2l16.2,94.7L60.8,4H86L60,140.9H31.2z"/>
	<path class="st0" d="M113.9,140.9V4h27.7v136.9H113.9z"/>
	<path class="st0" d="M176.1,140.9V4h19.4l30.4,71.3V4h23v136.9h-18.6l-30.4-75.7v75.7H176.1z"/>
	<path class="st0" d="M283.2,140.9V4h33.5c11.6,0,20.6,1.5,27.1,4.5s11.1,7.7,13.8,14c2.7,6.4,4.1,14.5,4.1,24.4v49.9
		c0,10.1-1.4,18.5-4.1,25s-7.2,11.4-13.6,14.4c-6.4,3.1-15.2,4.6-26.6,4.6L283.2,140.9L283.2,140.9z M311.1,121.5h5.9
		c5.2,0,8.9-0.8,11.1-2.5c2.2-1.6,3.6-4.1,4.1-7.3c0.6-3.2,0.8-7.2,0.8-11.9V43.4c0-4.7-0.4-8.5-1.1-11.4s-2.2-5-4.4-6.3
		c-2.2-1.4-5.8-2-10.7-2h-5.7L311.1,121.5L311.1,121.5z"/>
	<path class="st0" d="M393.6,140.9V4h59.7v19.3h-31.8v36.3H446V79h-24.5v43h32.1v18.9H393.6z"/>
	<path class="st0" d="M481.2,140.9V4h35.5c9.2,0,17.2,1,23.7,3.1c6.6,2.1,11.7,5.8,15.2,11.1s5.3,12.6,5.3,22c0,5.6-0.5,10.6-1.4,15
		c-1,4.3-2.6,8.1-5.1,11.3c-2.4,3.2-5.8,5.8-10.2,7.7l18.9,66.8h-28.6l-15.7-62H509v62h-27.8V140.9z M509,62.3h8.1
		c4.5,0,8.1-0.7,10.6-2.2c2.6-1.5,4.4-3.7,5.5-6.7s1.6-6.7,1.6-11.1c0-6.3-1.2-11.1-3.5-14.5c-2.3-3.3-6.6-5-12.9-5H509V62.3z"/>
	<path class="st0" d="M703.8,140.9V4h43.4c8.2,0,14.9,1.5,20.1,4.6c5.2,3.1,9,7.6,11.6,13.4c2.5,5.9,3.8,13,3.8,21.3
		c0,9.8-1.7,17.5-5,23s-7.9,9.4-13.6,11.7c-5.7,2.3-12.3,3.5-19.8,3.5h-12.7v59.3L703.8,140.9L703.8,140.9z M731.6,62h9.8
		c4.1,0,7.2-0.6,9.4-1.9c2.2-1.3,3.7-3.4,4.5-6.2s1.2-6.4,1.2-10.8c0-4.2-0.3-7.7-0.9-10.5c-0.6-2.8-2-5-4.1-6.6s-5.5-2.4-10.1-2.4
		h-9.6V62H731.6z"/>
	<path class="st0" d="M643.2,4v95.7c0,3.4-0.2,6.7-0.7,10c-0.4,3.3-1.5,5.9-3.3,7.9s-4.5,3-8.2,3c-3.6,0-6.3-1-8-3s-2.9-4.7-3.4-7.9
		c-0.5-3.3-0.8-6.6-0.8-10V4h-27.6v91.8c0,9.6,1.2,17.7,3.5,24.4c2.3,6.7,6.3,11.8,12.1,15.4c5.7,3.6,13.8,5.3,24.2,5.3
		s18.4-1.8,24.2-5.3c5.7-3.5,9.8-8.7,12.1-15.4c2.3-6.7,3.5-14.8,3.5-24.4V4H643.2z"/>
</g>
<path class="st1" d="M339.2,226.5l-0.8-0.9l0.9-0.6l-0.6-3.1c-0.5-0.3-1-0.5-1.5-0.7c-0.8-0.3-1.6-0.6-2.4-0.9c-1-0.3-1.2-1-1.3-1.3
	v-0.1c-1.7-0.3-3.2-0.5-4.1-1.1c-0.1,0-0.1,0-0.2,0h-0.6c-0.6,0-0.9,0-1.2-0.1c-0.3,0-0.7-0.2-1.4-0.6c-1.8,0.1-3.8,0.2-5.9,0.2
	c-2.6,0.1-5.3,0.2-8,0.4c-2.6,0.2-4.9,0.8-7.1,1.7l-0.5,0.2l-0.6-0.2c-0.6-0.2-1.3-0.3-2-0.3c-0.1,0-0.6,0.1-2.5,0.6
	c-0.7,0.2-1.2,0.3-1.4,0.4l-2,0.4l0.1-2.1c0.1-2.9,1-6.1,1.7-8c0.3-0.8,0.5-1.6,0.6-2.4c0.2-1.1,0.4-2.3,1-3.5
	c0.5-1.1,1-2.2,1.6-3.3c0.4-1,0.8-2.3,1-3.8l0.1-0.7l0.5-0.4c0.2-0.1,0.3-0.3,0.4-0.4c0.2-0.3,0.3-0.6,0.4-0.9
	c0.1-0.3,0.2-0.6,0.3-0.8c0.1-0.4,0.4-0.8,0.8-1.3c0.3-1.4,0.7-2.6,1.2-3.6s1-2.1,1.5-3.1c0.4-0.9,0.9-1.8,1.3-2.8
	c0.4-0.9,0.8-2,1.2-3.2l0.2-0.7l0.5-0.4c0,0,0.2,0,0.3-0.1c0.1-0.5,0.2-1.1,0.4-1.6c0.1-0.3,0.1-0.5,0.2-0.9
	c-0.2-0.1-0.2-0.7-0.4-0.8c-0.8-0.2-1.8-0.5-2.5-1.1l-1.1-0.9c-1.3-0.1-2.9-0.4-4.6-0.9c-0.8-0.2-1.3-0.4-1.7-0.8
	c-0.3,0-0.5,0.1-0.6,0.1c-0.2,0-0.8,0.6-0.8,0.6c-0.9,3.2-1.5,5.1-2.7,8c-1.2,3-2.5,6.1-3.7,9.2c-0.7,1.7-1.4,3.5-2.2,5.3
	c-0.7,1.8-1.5,3.7-2.3,5.7v0.1c-0.1,0.2-0.1,0.3-0.2,0.4c-0.1,0.2-0.2,0.5-0.4,0.7c-0.2,0.5-0.5,1.1-0.8,1.8
	c-0.2,0.5-0.1,0.7-0.1,0.8l0.4,1l-0.7,0.7c-0.5,0.5-0.8,1.2-1.1,2c-0.3,1-0.6,2.1-1,3.2c-0.1,0.6-0.3,1.2-0.5,1.8
	c-0.3,1-0.5,2.2-0.6,3.5c-0.1,1.2-0.1,2.5,0.1,3.7c0.1,0.8,0,1.6-0.2,2.4c-0.1,0.5-0.2,1.2-0.1,1.4c0.3,0.6,0.4,1.4,0.5,2
	s0.3,1.6,0.5,1.8l0.3,0.4c0.1,0.1,0.3,0.2,0.5,0.3c0.4,0.3,0.8,0.5,1,0.8l0.3,0.1c0.3,0.1,0.5,0.2,0.8,0.4c0.8,0.4,6.1,2.3,9.3,2.3
	c2.4,0,4.9-0.3,7.3-0.9c2.5-0.6,4.9-1.2,7.1-1.9c0.3-0.1,0.7-0.2,1.1-0.3c0.3-0.1,0.9-0.1,1.7-0.3h0.1c1,0,2,0,2.9-0.1
	c1-0.1,1.9-0.2,2.9-0.3c0.9-0.1,1.9-0.2,2.8-0.3c3.7-0.2,6.7,0,9.3,0.8c1.3-0.3,2.6-0.5,3.9-0.5c0.4,0,0.9,0,1.4,0
	c0.4-0.3,0.7-0.5,1-0.8c0.4-0.2,0.8-0.4,1.5-0.6l-0.1-0.3l0.2-0.3C339.5,226.9,339.4,226.7,339.2,226.5z"/>
<path class="st1" d="M413.8,209.6c-0.4-0.2-0.8-0.4-1.1-0.7c-0.3-0.3-0.6-0.5-1-0.7c0,0-0.3-0.2-1.2-0.3l-0.5-0.1
	c-0.7-0.3-1.5-0.8-1.9-1.6l0,0c-0.4,0.1-0.8,0.1-1.2,0.2c-0.3,0-0.6,0.1-0.8,0.2l-0.6,0.2l-0.5-0.2c-0.1,0-0.3,0-0.6,0h-1l-0.4-0.9
	c-0.6-1.3-1.1-2.7-1.5-4.2c-0.4-1.4-0.7-2.9-1.1-4.3c-0.2-1.1-0.4-2.1-0.7-3.1c-0.2-1-0.5-2-0.9-3l-0.1-0.4
	c-0.1-1.3-0.2-2.4-0.4-3.4c-0.2-1-0.4-2.1-0.6-3.1c-0.1-0.4-0.3-1-0.3-1.6c0-0.2-0.1-0.6-0.5-1.5c-0.5-0.4-1.1-0.6-1.9-0.8
	c-1.1-0.3-2.2-0.6-3.5-0.8c-0.8-0.2-1.5-0.4-2.1-0.5c-0.5-0.1-0.9-0.2-1.2-0.4l-1.1,0.8l-0.5-0.2c-1.4,1.8-2.8,3.4-4.2,4.7
	c-1.6,1.6-3.5,2.9-5.7,3.7l-0.4,0.2l-2-0.2c0,0-0.1,0-0.3,0.1c-0.3,0.1-0.6,0.2-0.8,0.2l-1.2,0.5c-0.7,0.9-1.4,1.7-1.9,2.5
	c-0.6,1-1.2,2-1.7,3c-0.5,0.9-1,1.8-1.5,2.6s-1.1,1.8-1.9,2.8v0.1v0.1l0.3,0.7l-0.4,0.7c-0.6,1-1.1,2-1.6,2.9c-0.5,1-1.1,2-1.7,3
	c-1.7,3-3.3,6-4.9,8.9c-1.5,2.8-3,5.7-4.3,8.7l-0.1,2.1l-0.1,0.1c0.3,0.4,0.5,0.8,0.6,1.3c0,0.1,0,0.2,0.2,0.6
	c0.1,0.5,0.2,0.9,0.3,1.3c0,0.1,0.2,0.3,0.5,0.8c0.5,0.3,1,0.6,1.4,1c0.3,0.3,0.8,0.6,1.4,1l0.6,0.1c0.2,0,0.5,0,0.7-0.1
	c0.3-0.1,0.9-0.2,1.7-0.3h0.3l0.2-0.8l0.7-0.3c0.2-0.1,0.4-0.2,0.7-0.3c0.1,0,0.1-0.1,0.1-0.1l0.3-0.2c0.4-0.2,0.8-0.4,1.2-0.6
	c0.2-0.1,0.4-0.2,0.5-0.4l0.2-0.4c0-0.8,0.1-1.7,0.4-2.5s0.6-1.7,1-2.5c0.2-0.5,0.4-1,0.6-1.5s0.3-1,0.5-1.5l0.1-0.5l0.4-0.3
	c0.2-0.2,0.4-0.3,0.5-0.4l0.3-1c0-0.1,0.1-0.4,0.2-0.6c0.3-0.8,0.8-1.2,1.2-1.4l0.2-0.1l0.4-0.1v-0.1c0.2-0.8,0.6-1.7,1-2.5l0.5-0.8
	l1.6,1.3v0.1c0,0.1,0.2,0.4,0.3,0.6c0.1,0.1,0.2,0.2,0.3,0.3l1.1,0.6l-0.2,0.8c-0.1,0.3-0.1,0.5,0,0.6c0.3,0.4,0.6,0.8,0.9,1
	c0.1,0.1,0.2,0.1,0.2,0.2c0.4,0.2,0.6,0.6,0.8,1.1h0.1c0.4,0,0.9,0.1,1.4,0.1s1,0,1.5,0c1.5,0,2.8-0.1,4-0.3
	c1.3-0.2,2.5-0.5,3.8-0.8c1-0.3,2.1-0.5,3-0.7c1.1-0.2,2.5-0.2,4.1,0.1l1.2,0.2l0.1,1.2c0.2,2.1-0.2,3.6-1.1,4.6
	c-0.8,0.9-2.3,1.7-4.4,2.2l0,0c0.1,0.1,0.1,0.1,0.2,0.2l0.1,0.1v0.4c0.3,0.2,0.6,0.4,0.9,0.5c0.5,0.3,1,0.6,1.2,0.8
	c0.3,0.5,0.7,1.2,0.4,2.4c0.2,0.1,0.3,0.1,0.5,0.2c0.2,0.1,0.4,0.2,0.6,0.4c0.4,0.2,0.8,0.4,1.1,0.7c0,0,0.2,0.1,1.1,0.3
	c1.2-0.1,2.4-0.3,3.5-0.8c1.2-0.5,2.3-1.1,3.3-1.9c1-0.7,1.8-1.6,2.6-2.6c0.7-1,1.3-1.9,1.6-2.8l0.1-0.3c0.1-0.9,0.1-1.9,0-2.7
	c-0.1-1.1-0.3-2.1-0.5-3.1c-0.1-0.4-0.3-0.8-0.3-1.3c0-0.3-0.1-0.6-0.1-0.9l-0.2-1.3l1.2-0.5c1.5-0.6,2.8-1.4,4-2.3
	C412.3,211.3,413.2,210.5,413.8,209.6z M389.8,209.5c-2.1,0.4-4.1,0.6-5.9,0.8s-3.7,0.3-5.8,0.4c-0.3,0.1-0.7,0.1-1.1,0.1
	c-0.1,0-0.3,0-0.4,0l0.1,0.2l-1.1,0.1c-0.7,0-1.4,0-2.2,0l-0.7-0.1l1.5-2.6c0.4-0.6,0.8-1.2,1.2-1.8l1.3-1.7c0.9-1.4,2-2.9,3.4-4.6
	c1.3-1.6,2.7-3.1,4.1-4.4l2.3-3.4l0.7,1.7c0.7,2.1,1.7,5.8,2.2,7.4c0.6,2,1.1,4,1.6,5.8l0.5,1.7L389.8,209.5z"/>
<path class="st1" d="M468.4,229.9c0.8-0.5,1.6-1.1,2.3-1.7c0.6-0.5,1.3-1,2-1.3v-0.1c0.1-0.4,0.2-0.7,0.4-1l0.1-1.3l1.7-0.3h0.1
	c0.1,0,0.1,0,0.2,0c0.5-0.8,1-1.7,1.5-2.5c0.7-1.2,1.5-2.2,2.6-3c0.4-1.2,0.8-2.6,1.4-4l1.7-4.2c-0.1-1.6,0-3.2,0.2-4.6
	c0.2-1.4,0.5-2.8,0.8-4.2c0.3-1.3,0.6-2.6,1-3.9c0.3-1.3,0.6-2.7,0.8-4.3l0.1-0.8l0.7-0.4c0.4-0.2,0.7-0.5,1-0.9s0.5-0.9,0.7-1.3
	c0.2-0.6,0.4-1.2,0.6-1.8c0.2-0.5,0.4-1,0.6-1.5c-0.2-0.7-0.5-1.3-1-1.9c-0.6-0.8-1.2-1.6-1.9-2.5c-1-0.2-1.9-0.5-2.7-1
	c-0.8-0.5-1.5-1-2.2-1.6c-0.6-0.5-1.2-0.9-1.9-1.4c-0.3-0.2-0.6-0.3-1-0.4c-0.2,0.4-0.3,0.7-0.4,1.1l-0.8,2.7c-0.3,1-0.6,1.9-1,2.7
	s-0.9,1.6-1.5,2.2c-0.5,2.9-1,5.7-1.5,8.4c-0.5,3-1.3,5.9-2.3,8.5c-1,2.7-2.3,5.1-3.9,7.3c-1.4,1.8-2.6,2.4-4,3
	c-0.5,0.2-1,0.5-1.7,0.8l-1.3,0.7l-1-1.7c-0.1-0.3-0.2-0.5-0.5-0.8c-0.5-0.5-0.8-1.4-0.8-2.8c-0.1-1.6-0.5-2.8-0.5-4.2
	s0.1-2.8,0.2-4.2c0.1-1.3,0-2.5-0.2-3.8l0.4-1.4l0.8-1c0-0.2,0.1-0.4,0.2-0.5c0.2-0.6,0.4-1,0.7-1.5c0.1-0.2,0.2-0.4,0.3-0.7
	c0,0,0-0.2-0.2-0.7l-0.1-2l0.5-0.1l-0.1-1.1l0.5-0.8c0,0,0-0.1,0.1-0.1c0.1-0.1,0.1-0.2,0.2-0.3c-0.3-0.8-0.7-1.6-1.2-2.3
	c-0.8-1.1-1.8-2-3-2.9s-2.6-1.6-4.1-2.3c-1.1-0.5-4.9-2.2-6-2.6c-3.5,6.7-4.6,14.8-8.4,21.7c-3.9,7-7.6,13.7-10.9,19.8
	c0.2,0.4,0.4,0.9,0.5,1.3c0.1,0.7,0.2,1.4,0,2.1c0.4,0.8,0.9,1.7,1.3,2.6c0.5,1.1,1.1,2.2,1.7,3.3c0.6,1,1.3,2,2.1,2.8
	c0.6,0.6,1.4,1.1,2.3,1.4c0.2,0,0.4-0.1,0.5-0.2c0.2-0.1,0.4-0.2,0.7-0.3c0.1-0.2,0.2-0.4,0.4-0.6l0.5-0.6h0.8
	c0.8,0.1,1.1-0.1,1.1-0.1c0.2-0.2,0.4-0.5,0.5-0.9c0.2-0.6,0.3-1.2,0.4-1.8c0.1-0.7,0.4-1.2,0.8-1.7c-0.1-0.6-0.1-1.1,0.1-1.6
	c0.2-0.6,0.5-1.2,0.9-1.8c0.3-0.4,0.6-0.9,1-1.3c0.1-0.1,0.2-0.3,0.2-0.5l0.2-1.4h1.2c0.2-0.4,0.4-0.8,0.6-1.3
	c0.3-0.6,0.6-1.2,0.8-1.7c0,0,0.1-0.6,0.2-0.9c0.2-0.9,0.2-2,0.2-2.9c0-1.4,0-2.5,0.6-3.1l2.9-6.5l0.5,6.9c0.3,0.8,0.9,3.4,1,4.5
	c0.1,0.9,0.2,1.9,0.4,2.7c0.9,3,1.9,6.6,3.1,7.9c1.3,1.4,2.9,2.2,4.7,3.2c1,0.5,2,1,3,1.7c1.6,0.5,2.9,0.7,3.9,0.5
	C466.8,230.7,467.7,230.4,468.4,229.9z"/>
<path class="st1" d="M542.7,195.4c-2-1.9-4.4-3.7-6.9-5.3s-5-3.3-7.5-4.9c-3.4-0.8-6.8-2.1-10.2-3.7c-3-1.4-6.1-2.7-9.4-3.7
	c-0.1,0.2-0.2,0.5-0.2,0.7c-0.2,0.9-0.5,1.8-0.9,2.6c0.1,0.6,0.1,1.1,0,1.7c0,0.5,0,1.1,0.1,1.3c0,0.1,0.1,0.1,0.2,0.2
	c0.3,0.2,1.1,0.7,1,1.8v0.6l-0.9,0.6l-1,0.6c0,0.3-0.1,0.6-0.2,0.8c0,0-0.1,0.2-0.2,0.6c0.7,2.7,1.2,5.6,1.4,8.6
	c0.2,3.2,0.1,6.3-0.4,9.4l-0.2,1l-1,0.3h-0.1c-0.2,1.6-0.7,3.2-1.3,4.7c-0.6,1.4-1.2,2.9-1.8,4.4c-0.1,1.1-0.4,2-1.1,2.7
	c-0.2,0.2-0.4,0.5-0.5,0.9c0.1,1.4,0.2,2.7,0.3,3.9l0,0c0.1,1.3,0.4,2.4,0.7,3.4c0.3,1,0.9,1.8,1.5,2.5c0.6,0.6,1.4,1.1,2.6,1.4
	c3.9-1.4,7.9-2.7,12-3.9s8.2-2.6,12.1-4.1c3.8-1.5,7.3-3.3,10.5-5.4c3-1.9,5.5-4.3,7.6-7.1v-0.6c0-0.5,0.1-0.9,0.3-1.3
	c0.1-0.2,0.1-0.3,0.2-0.5c0-0.1,0.1-0.2,0.1-0.4c-0.1-3-0.8-5.6-2-7.7C546.4,199.3,544.7,197.2,542.7,195.4z M538.7,206.5
	c-0.6,1.5-1.5,2.8-2.4,3.8s-2,1.9-3.1,2.7c-1.1,0.7-2.4,1.4-3.7,2c-1.1,0.5-2.3,1-3.5,1.4c-0.3,0.3-0.6,0.5-0.9,0.7
	c-0.1,0.1-0.2,0.2-0.3,0.4l-0.4,0.8h-0.9c-0.6,0-1.1,0.1-1.5,0.3c-0.5,0.2-1,0.4-1.5,0.6c-0.5,0.2-1.1,0.5-1.6,0.7
	c-0.7,0.3-1.4,0.4-2.1,0.5l-2,0.1l0.4-2c0.5-2.6,0.9-5,1.2-7.2s0.5-4.3,0.5-6.4c0-2.1,0-4.2-0.2-6.2c-0.1-0.9-0.1-1.8-0.1-2.6
	c0-1.1,0-2.2-0.2-3.5l-0.4-2.7c0,0,2.4,0.7,2.7,0.8h0.3c0.8,0.2,1.2,0.4,1.6,0.6c0.3,0.2,0.6,0.3,1,0.4c0.2,0.1,0.4,0.2,0.6,0.2
	c0.6,0.2,1.3,0.4,2.2,0.9c0.9,0.1,1.7,0.4,2.4,0.8c0.6,0.4,1.3,0.7,1.8,1.1c0.5,0.4,1.1,0.7,1.6,1.1c0.4,0.3,0.9,0.5,1.5,0.6
	l0.8,0.2l0.3,0.8c0.2,0.7,0.6,1.2,1,1.7c0.5,0.6,1,1.1,1.6,1.7c0.6,0.6,1.2,1.2,1.8,1.9c0.7,0.8,1.2,1.6,1.6,2.6l0.3,0.6
	L538.7,206.5z"/>
<path class="st1" d="M678.5,232c0.4-0.5,0.7-1,1.1-1.4l0.9-1.2l1.3,0.7c0.6,0.4,1.4,0.8,2.2,1.2s1.6,0.8,2.3,1
	c0.5,0.2,0.9,0.3,1.2,0.3l0.7-0.6l0.8,0.2c0.2,0.1,0.4,0.1,0.6,0.1c0.2,0,0.5,0.1,0.7,0.2c1.1-0.2,2.3-0.4,3.5-0.6
	c1.7-0.3,2.2-0.8,2.3-0.9l0.4-0.5l0.6-0.1c3.5-0.5,6.9-1.4,10.2-2.6c3.3-1.3,6.5-2.7,9.6-4.3l1.5-1.1c0.1-0.1,0.2-0.2,0.4-0.4
	c0.2-0.3,0.6-0.7,1.1-1.4l2.3-2.6l-1-1l0.7-1.3c0-0.3-0.2-0.7-0.3-1.1c-0.2-0.5-0.5-1.1-0.8-1.7c-0.3-0.5-0.5-1-0.7-1.5
	c-0.4-0.2-0.7-0.4-0.9-0.6l-0.3-0.3c-0.5-0.8-1.1-1.5-1.8-2c-0.8-0.6-1.7-1.3-2.6-1.9c-0.6-0.4-1.1-0.9-1.5-1.3
	c-0.3-0.3-0.6-0.6-0.9-0.8c-0.3-0.2-0.5-0.3-0.8-0.5c-0.9-0.5-1.7-0.9-2.4-1.7l-0.9-1.1l1-1.1c1.1-1.2,2.4-2.4,3.7-3.5
	c1.2-1,2.4-2.1,3.4-3.2c1-1.1,1.8-2.3,2.5-3.5c0.5-0.9,0.8-2,0.8-3.3c-0.3-0.2-0.5-0.4-0.7-0.6c-0.3-0.4-0.4-0.9-0.3-1.4
	c0-0.4-0.1-0.7-0.4-1c-0.4-0.5-0.8-1-1.4-1.4c-0.6-0.5-1.3-1-2-1.5c-0.6-0.4-1.2-0.9-1.7-1.4c-0.5-0.1-1.1-0.3-1.6-0.7
	c-0.5-0.3-1-0.7-1.5-1.1c-0.4-0.3-0.9-0.6-1.4-0.9c0,0-0.2,0.1-0.5,0.3l-0.2,0.1l-0.9,0.1l-0.7-0.2c-0.6-0.4-1.1-0.6-1.5-0.6
	c-0.6-0.1-1.1-0.3-1.6-0.5c-0.4,0.1-0.8,0.1-1.2,0.2c-0.6,0-1.3,0-2,0.1c-0.6,0-1.2,0-1.7,0c-0.4,0-0.7,0.1-1,0.2l-0.4,0.2h-0.4
	c-3-0.2-5.9,0-8.5,0.5c-2.8,0.6-5.6,1.1-8.3,1.5l-5.2,1.1c-1.7,0.4-3.4,0.9-4.9,1.5s-2.8,1.3-4,2.2c-0.8,0.6-1.5,1.4-2,2.3
	c0.9,1.7,2,3.2,3.3,4.5s3.1,2.4,5.1,3.2c0.6-0.1,1.4-0.2,2.1-0.2c0.2,0,0.4,0,0.6-0.1c0.2-0.8,0.6-1.5,1-2.1
	c0.7-0.9,1.8-1.4,3.3-1.5l1.3-0.1l0.3,1.3c0.4,1.3,0.4,2.5,0.1,3.6c-0.2,0.9-0.5,1.7-0.9,2.5c-0.3,0.7-0.6,1.4-0.9,2.1
	c-0.2,0.5-0.3,1.1-0.2,1.7v0.4l-0.2,0.4c-0.6,1.4-1,2.6-1.2,3.5c-0.2,1-0.5,1.9-0.6,2.7c-0.2,1-0.5,1.9-0.9,2.9
	c-0.3,0.8-0.8,2.2-1.5,4.1l-0.2,0.5l-0.5,0.3c-0.3,0.2-0.5,0.4-0.5,0.6c-0.2,0.5-0.3,1-0.5,1.5c-0.2,0.6-0.4,1.3-0.6,1.8
	c-0.2,0.4-0.4,0.8-0.6,1.1c0.2,0.4,0.3,0.7,0.4,1.3l0.1,1.4l-1.3,0.6c-0.1,0.7-0.1,1.3-0.3,1.9c0.2,0.5,0.5,0.9,0.8,1.3
	c0.5,0.6,0.7,1.1,0.8,1.7c0.4,0.3,0.7,0.7,1,1.2c0.1,0.2,0.2,0.5,0.3,0.7c0.2,0.1,0.4,0.2,0.6,0.3c0.4,0.2,0.8,0.5,1.1,0.8
	c0.2,0.2,0.5,0.4,0.7,0.7c0.4-0.1,0.9-0.2,1.3-0.1l1.3,0.2C678.3,232.2,678.4,232.1,678.5,232z M686.9,187.3c0.4-0.2,0.7-0.4,1-0.5
	c1.6-0.8,2.2-1.2,5.4-1.8c3.3-0.6,6.7-0.5,10-0.4l4.8,0.7l-2.4,2.1c-1.4,1.5-2.9,2.5-4.5,3.6c-0.6,0.4-1.1,0.8-1.7,1.2
	c-2.4,1.7-5.6,3.4-8.3,4.4L690,197l-0.7-1.1c-0.3-0.5-0.6-1.4-1-2.4c-0.8-2.1-1.3-3.2-1.5-3.4l-2.1-1.5L686.9,187.3z M683.3,221.4
	c0.2-0.6,0.4-1.2,0.7-1.8c0.5-1.4,1-2.8,1.7-4.2c0.9-1.9,1.3-2.9,1.5-3.3c-0.4-0.6-0.1-1,0.7-2.2l0.2-0.4l0.2-0.5l0.9-0.1
	c1.4-0.2,2.8-0.5,4.2-0.8c1.5-0.4,3.2-0.8,4.8-1c1.7-0.2,3.6-0.2,5.5,0c2,0.2,6.3,2.1,6.7,2.4l0.6,0.3l0.1,0.6
	c0.1,1.5-2,3.8-2.7,4.2c-0.5,0.3-1.1,0.6-1.6,1c-0.2,0.2-0.4,0.3-0.5,0.6l0,0L706,217l-0.8,0.2c-1.6,0.5-3.2,1.1-4.7,1.7
	c-1.6,0.6-3.2,1.3-4.7,1.8c-1.6,0.6-3.3,1.2-5,1.7c-1.8,0.5-3.8,0.9-5.9,1.2l-2.7,0.3L683.3,221.4z"/>
<path class="st1" d="M775.3,188.8l0.4-0.4c0.4-0.7,0.9-1.4,1.6-1.9c0.5-0.4,1.1-0.8,1.7-1.3c0.8-0.6,1.6-1.2,2.3-1.8
	c0.5-0.4,0.9-1.1,1.3-2l-0.4-0.8l0.2-0.6c0-0.1,0-0.2,0-0.3s-0.1-0.1-0.1-0.3l-0.6-0.3c-0.9-0.5-1.9-1-2.9-1.6
	c-1.2-0.7-2-1.6-2.4-2.6v-0.1h-0.2c-3.7,0.7-6.5,2.4-8.5,5.1l-1.2,1.6l-0.2-0.6c-0.4,0.5-0.9,1-1.4,1.4s-1.1,0.9-1.6,1.4L762,185
	l0.2,0.8l-6.8,8.1c-0.4,0.3-0.6,0.5-0.9,0.6c-0.4,0.4-0.9,0.7-1.5,0.9l-2.1,0.9l-0.1-2.7c0.1-0.6,0.1-1.2-0.1-1.7
	c-0.2-0.7-0.4-1.4-0.6-2.1c-0.2-0.7-0.4-1.4-0.7-2.2c-0.2-0.8-0.3-1.7-0.4-2.6l-0.2-0.5c-0.4-0.5-0.7-1.3-0.7-2.4c0-0.4,0-0.6,0-0.6
	l-0.1-0.7l-1.1-0.9l-0.6-1.1c-0.6-0.4-1.1-0.7-1.7-0.9c-0.7-0.3-1.4-0.6-2.2-0.9c-0.7-0.4-1.3-0.7-1.8-0.9s-1-0.5-1.5-0.7l-1,0.1
	c-0.5,0.3-0.8,0.6-1,1c-0.3,0.4-0.4,0.9-0.5,1.4c-0.1,0.6,0,1.1,0.1,1.7l0.5,2c0.2,0.7,0.4,1.5,0.5,2.2c0.2,1,0.1,1.9-0.2,2.6
	l-0.1,0.3c0.1,0.1,0.1,0.2,0.2,0.3l0.4,0.4v0.6c0,0.6,0.1,1.2,0.2,1.8c0.1,0.6,0.3,1.3,0.5,1.9c0.2,0.7,0.3,1.3,0.4,1.8
	c0.2,0.6,0.3,1.3,0.3,2.2c0.3,0.9,0.8,2.1,1.4,3.4c0.6,1.3,1.3,2.7,2.2,4.1c1,0.8,1.9,1.8,2.6,2.8l0.7,0.9l-0.7,0.9
	c-0.3,0.5-0.8,1.1-1.3,2c-0.6,0.9-1.4,2.1-2.3,3.5c-1.2,1.8-2,3.3-2.5,4.2c-0.6,1.2-0.8,1.7-0.9,1.9l-0.1,0.4l-0.3,0.3
	c-0.6,0.5-1,1.1-1.3,1.8c-0.4,0.8-0.7,1.6-0.9,2.4c-0.2,0.4-0.3,0.7-0.4,1.1c-0.1,0.3-0.2,0.6-0.3,0.9v0.4c1,3.3,3.4,5.1,7.6,5.7
	l0.9-0.3c0.2-0.2,0.3-0.3,0.3-0.3l0.1-0.1l1.3-1.1c0.3-0.2,0.5-0.5,0.7-0.8l0.3-1c0.1-0.1,0.2-0.3,0.4-0.6s0.3-0.5,0.5-0.7
	c0.3-0.4,0.6-0.9,0.9-1.4c0.2-0.3,0.3-0.7,0.4-1l0.1-0.5l0.3-0.4c2.4-2.7,4-5.2,4.6-7.5l0.1-0.5l0.4-0.3c0.7-0.6,1.2-1.1,1.4-1.5
	c0.3-0.4,0.6-1,0.9-1.9l0.2-0.4l0.4-0.3c0.5-0.4,0.9-0.8,1.2-1.3c0.4-0.6,0.7-1.2,1.1-1.8c0.4-0.7,0.8-1.2,1.2-1.8
	c0.4-0.5,0.8-1,1.3-1.4l0.6-1.4l0.2-0.2c0.5-0.5,0.8-0.8,0.9-1c0.3-0.5,0.5-1,0.8-1.5s0.5-0.9,0.7-1.3c0.3-0.6,0.8-1.2,1.8-2
	c0.1-0.2,0.2-0.4,0.2-0.5c0.1-0.1,0.1-0.3,0.2-0.4l0.1-0.5l0.9-0.8c0,0,0.2-0.2,0.8-1c0.7-1.2,1.1-1.6,1.3-1.9
	c0.4-0.4,0.9-0.7,1.5-0.7h0.1C772.5,191,773.6,189.7,775.3,188.8z"/>
<path class="st1" d="M637.2,232.3h0.6l0.3-0.3l0.8,0.5c0.2,0.1,0.3,0.2,0.5,0.3c0.2-0.4,0.5-0.7,0.9-1c0.3-0.2,0.5-0.3,0.8-0.3
	c-0.1-0.2-0.1-0.3-0.2-0.5c-0.7-1.2-1.5-2.4-2.5-3.6c-1.1-1.3-2.2-2.6-3.3-3.9c-0.1-0.1-0.8-0.7-3-2.3l-1.6-1.1l1.9-1.7
	c1.1-0.5,2.2-1,3.2-1.5c1.6-0.7,3.1-1.5,4.5-2.2c-0.3-0.3-0.5-0.7-0.5-1.2l-0.1-1.5l0.9-0.1c0-0.1,0-0.3,0-0.4c0-0.2,0-0.4,0.1-0.6
	h-0.1c0,0-0.2,0-0.8-0.1c-0.9-0.1-1.9-0.3-2.4-1c-0.8-0.1-2,0-2.5,0.1c-1.1,0.3-1.7-0.2-2-0.5c-0.2-0.3-0.4-0.5-0.5-0.9
	c-0.3,0-0.5,0-0.8,0c-1.6,1-3.2,2-4.9,3l-1.5,0.8l-0.1-0.1c-0.4,0.2-0.8,0.4-1.2,0.6l-1.1,0.5h-0.1l-0.4,0.2l-1-0.5
	c-1.9-1.5-3.5-2.5-4.3-2.9c-0.5-0.3-1.2-0.7-1.3-1.4c-0.8-0.8-2.1-1.9-3.1-2.7l-2.9-2.5l2.3-1.1c0.6-0.5,1.4-0.8,1.9-0.9l0.4-0.1
	c0.1,0,0.3-0.1,0.4-0.2c0.4-0.2,0.9-0.5,1.5-0.6c0.4,0,0.8-0.2,1.2-0.3c0.7-0.4,1.7-0.9,2.6-1.2c0.7-0.2,1.3-0.6,1.7-1l0.5-0.3
	c0.3-0.1,0.5-0.3,0.7-0.5c0.3-0.3,0.5-0.7,0.7-1.1c0.2-0.4,0.4-0.9,0.5-1.4c0.1-0.4,0.1-0.8,0.1-1.2c0-0.2-0.1-0.6-0.2-0.9
	c-0.1-0.4-0.3-0.8-0.4-1.1c-0.2-0.5-0.4-1-0.5-1.5c-0.1-0.4-0.1-0.9-0.1-1.3c-0.9-1.4-1.6-3-2.3-4.5c-0.7-1.6-1.5-3.1-2.4-4.6
	l-1.2-1.2c-0.1-0.1,0.2-0.1,0.2-0.2c-3.5-3.2-9.1-2.9-11.5-2.6c-0.1,0.1-0.3,0.2-0.6,0.4s-0.6,0.4-1,0.6c-0.3,0.1-0.6,0.2-0.9,0.3
	c-0.5,0.5-1.1,0.9-1.7,1.1c-0.3,0.1-0.5,0.3-0.7,0.5l-0.4,0.7l-0.6,0.1c-0.1,0.1-0.1,0.1-0.2,0.2c-0.3,0.3-0.6,0.5-0.9,0.7
	c-0.3,0.1-0.5,0.2-0.8,0.2c-1.1,1-2.2,1.9-3.4,2.9c-1.3,1.1-2.4,2.3-3.4,3.6s-1.8,2.7-2.4,4.2c-0.5,1.4-0.7,3-0.6,4.8
	c0.1,0.1,0.1,0.2,0.2,0.4l0.2,0.5c0.3,0.6,0.6,1.1,1,1.6c0.6,0.8,1.3,1.6,2.2,2.2c0.3,0.2,0.6,0.5,0.9,0.7c0.4,0.4,0.9,0.8,1.3,0.9
	l2.4,0.9l-1.9,1.8c-0.5,0.5-1.1,0.6-1.4,0.7c-0.1,0-0.2,0-0.3,0.1c-0.4,0.2-0.7,0.3-0.8,0.4l-0.4,0.6l-0.6,0.1
	c-0.1,0.1-0.1,0.1-0.2,0.2c-0.3,0.3-0.6,0.5-1,0.7c-0.3,0.1-0.6,0.2-0.9,0.2c-1.2,1-2.4,2-3.7,3.1c-1.4,1.1-2.6,2.4-3.7,3.7
	c-1.1,1.3-1.9,2.8-2.5,4.4c-0.6,1.4-0.8,3.1-0.6,4.9c0.4,0.9,0.9,1.7,1.5,2.5c0.7,0.9,1.5,1.6,2.4,2.3c0.9,0.6,2,1.2,3.2,1.5
	c1.2,0.4,2.7,0.5,4.2,0.4h0.1h0.2c1.7,0.4,3.2,0.6,4.4,0.6s2.6-0.2,3.9-0.5l0.3-0.1h0.2c0.5,0.1,1.1,0.1,1.8,0.1s1.4-0.1,2.1-0.3
	c0.7-0.1,1.4-0.3,2.1-0.5c0.7-0.2,1.3-0.4,1.8-0.6l0.2-0.1l2.1-0.2c0.5-0.1,0.9-0.2,1.3-0.3c0,0,0.1-0.1,0.2-0.1l1-0.5l0.1,0.1
	c0.4-0.2,0.8-0.4,1.3-0.5c0.5-0.2,1.1-0.3,1.6-0.5c0.7-0.3,1.6-0.7,2.5-1.2l0.2-0.1c0.4-0.2,0.8-0.4,1.2-0.6l1-0.5l0.8,0.7
	c5.3,4.6,6.1,5,6.2,5.1c3.6,1.6,7,3,10.3,4.2c0.1,0,0.1-0.1,0.2-0.1c0-0.1,0-0.2-0.1-0.3c0-0.6,0.2-1.1,0.6-1.5L637.2,232.3z
	 M597.6,192.1c0.1-0.4,0.4-0.7,0.7-1c0.1-0.7,0.4-1.3,0.9-1.8c0.3-0.4,0.8-0.6,1.1-0.8c0.1-0.1,0.3-0.1,0.3-0.2c0.3-0.3,1-1,1.4-1.3
	c0.6-0.6,1.5-1.2,2.4-1.7c0.8-0.4,1.6-0.9,2.4-1.3l0.9-0.5l0.2,0.2c0.2,0,0.4-0.1,0.6-0.1c1.4-0.1,2.7,0.6,3.4,1.8
	c0.3,0.5,0.5,1,0.7,1.5c0.3,0.7,0.7,1.4,1.2,2l0.3,0.5v0.5l0,0v0.1l0.2,0.4l-0.1,0.5c-0.1,0.8-0.4,1.4-1,1.8l-0.3,0.6l-0.6,0.2
	c-0.9,0.3-1.7,0.6-2.5,0.9l0,0c-0.1,0.1-0.6,0.4-0.7,0.6c-0.8,0.6-1.7,1.3-2.7,1.6c0,0-0.1,0.1-0.2,0.1l-0.1,0.1
	c-1,0.5-1.8,0.9-2.6,0.9c-0.3,0-0.5-0.1-0.8-0.2l-0.5-0.3c-1.2-0.8-1.5-1.1-1.8-1.5c-0.2-0.3-1.4-1.2-2.3-1.9l-0.9-0.7L597.6,192.1z
	 M608.2,219.2l-6.8,2.4c-0.8,0.2-1.5,0.3-2.2,0.4H599c-0.7,0-1.3,0-2,0c-0.2,0-0.6,0.1-0.9,0.2c-0.6,0.2-1.2,0.4-1.9,0.3
	c-0.2,0-0.4,0-0.6,0c-0.9,0-1.6-0.1-2.2-0.2c-1.1-0.2-1.7-1-2-1.4c-0.1-0.1-0.2-0.2-0.2-0.3l-0.7-0.6l0.1-0.9
	c0.1-0.9,0.4-1.7,0.8-2.4c0.4-0.6,0.8-1.1,1.2-1.6c0.4-0.4,0.8-0.8,1.3-1.3c0.3-0.3,0.6-0.6,0.8-1l0.1-0.1c0.1-0.1,2.8-2,3.8-2.5
	s2-1.1,3-1.6l0.9-0.5l0.1,0.1l0.1-0.1l0.8,0.6c0.4,0.4,0.9,0.7,1.3,1.1c0.9,0.7,1.8,1.4,2.5,2.3c0.2,0.2,2.2,2.2,4.1,3.9l2.1,1.9
	L608.2,219.2z"/>
</svg>
